<svg id="visual" viewBox="0 0 400 250" width="400" height="250" xmlns="http://www.w3.org/2000/svg" xmlns:xlink="http://www.w3.org/1999/xlink" version="1.1"><rect x="0" y="0" width="400" height="250" fill="#ffffff"></rect><defs><linearGradient id="grad1_0" x1="37.5%" y1="0%" x2="100%" y2="100%"><stop offset="17.999999999999996%" stop-color="#fff942" stop-opacity="1"></stop><stop offset="82%" stop-color="#fff942" stop-opacity="1"></stop></linearGradient></defs><defs><linearGradient id="grad1_1" x1="37.5%" y1="0%" x2="100%" y2="100%"><stop offset="17.999999999999996%" stop-color="#fff942" stop-opacity="1"></stop><stop offset="82%" stop-color="#fffa64" stop-opacity="1"></stop></linearGradient></defs><defs><linearGradient id="grad1_2" x1="37.5%" y1="0%" x2="100%" y2="100%"><stop offset="17.999999999999996%" stop-color="#fffa81" stop-opacity="1"></stop><stop offset="82%" stop-color="#fffa64" stop-opacity="1"></stop></linearGradient></defs><defs><linearGradient id="grad1_3" x1="37.5%" y1="0%" x2="100%" y2="100%"><stop offset="17.999999999999996%" stop-color="#fffa81" stop-opacity="1"></stop><stop offset="82%" stop-color="#fffb9c" stop-opacity="1"></stop></linearGradient></defs><defs><linearGradient id="grad1_4" x1="37.5%" y1="0%" x2="100%" y2="100%"><stop offset="17.999999999999996%" stop-color="#fffcb5" stop-opacity="1"></stop><stop offset="82%" stop-color="#fffb9c" stop-opacity="1"></stop></linearGradient></defs><defs><linearGradient id="grad1_5" x1="37.5%" y1="0%" x2="100%" y2="100%"><stop offset="17.999999999999996%" stop-color="#fffcb5" stop-opacity="1"></stop><stop offset="82%" stop-color="#fffdce" stop-opacity="1"></stop></linearGradient></defs><defs><linearGradient id="grad1_6" x1="37.5%" y1="0%" x2="100%" y2="100%"><stop offset="17.999999999999996%" stop-color="#fffee6" stop-opacity="1"></stop><stop offset="82%" stop-color="#fffdce" stop-opacity="1"></stop></linearGradient></defs><defs><linearGradient id="grad1_7" x1="37.5%" y1="0%" x2="100%" y2="100%"><stop offset="17.999999999999996%" stop-color="#fffee6" stop-opacity="1"></stop><stop offset="82%" stop-color="#ffffff" stop-opacity="1"></stop></linearGradient></defs><defs><linearGradient id="grad2_0" x1="0%" y1="0%" x2="62.5%" y2="100%"><stop offset="17.999999999999996%" stop-color="#fff942" stop-opacity="1"></stop><stop offset="82%" stop-color="#fff942" stop-opacity="1"></stop></linearGradient></defs><defs><linearGradient id="grad2_1" x1="0%" y1="0%" x2="62.5%" y2="100%"><stop offset="17.999999999999996%" stop-color="#fffa64" stop-opacity="1"></stop><stop offset="82%" stop-color="#fff942" stop-opacity="1"></stop></linearGradient></defs><defs><linearGradient id="grad2_2" x1="0%" y1="0%" x2="62.5%" y2="100%"><stop offset="17.999999999999996%" stop-color="#fffa64" stop-opacity="1"></stop><stop offset="82%" stop-color="#fffa81" stop-opacity="1"></stop></linearGradient></defs><defs><linearGradient id="grad2_3" x1="0%" y1="0%" x2="62.5%" y2="100%"><stop offset="17.999999999999996%" stop-color="#fffb9c" stop-opacity="1"></stop><stop offset="82%" stop-color="#fffa81" stop-opacity="1"></stop></linearGradient></defs><defs><linearGradient id="grad2_4" x1="0%" y1="0%" x2="62.5%" y2="100%"><stop offset="17.999999999999996%" stop-color="#fffb9c" stop-opacity="1"></stop><stop offset="82%" stop-color="#fffcb5" stop-opacity="1"></stop></linearGradient></defs><defs><linearGradient id="grad2_5" x1="0%" y1="0%" x2="62.5%" y2="100%"><stop offset="17.999999999999996%" stop-color="#fffdce" stop-opacity="1"></stop><stop offset="82%" stop-color="#fffcb5" stop-opacity="1"></stop></linearGradient></defs><defs><linearGradient id="grad2_6" x1="0%" y1="0%" x2="62.5%" y2="100%"><stop offset="17.999999999999996%" stop-color="#fffdce" stop-opacity="1"></stop><stop offset="82%" stop-color="#fffee6" stop-opacity="1"></stop></linearGradient></defs><defs><linearGradient id="grad2_7" x1="0%" y1="0%" x2="62.5%" y2="100%"><stop offset="17.999999999999996%" stop-color="#ffffff" stop-opacity="1"></stop><stop offset="82%" stop-color="#fffee6" stop-opacity="1"></stop></linearGradient></defs><g transform="translate(400, 0)"><path d="M0 235.8C-6.5 190.5 -13 145.1 -34.5 151.1C-56 157.1 -92.5 214.5 -102.3 212.5C-112.2 210.5 -95.4 149.2 -100.4 125.9C-105.4 102.6 -132.2 117.3 -139.9 111.6C-147.7 105.9 -136.4 79.7 -133.3 64.2C-130.3 48.8 -135.6 44.1 -154 35.2C-172.5 26.2 -204.2 13.1 -235.8 0L0 0Z" fill="#fffef3"></path><path d="M0 206.4C-5.7 166.7 -11.4 127 -30.2 132.2C-49 137.5 -80.9 187.7 -89.5 185.9C-98.2 184.2 -83.5 130.5 -87.8 110.1C-92.2 89.8 -115.7 102.7 -122.5 97.7C-129.2 92.6 -119.3 69.7 -116.7 56.2C-114 42.7 -118.6 38.6 -134.8 30.8C-150.9 23 -178.7 11.5 -206.4 0L0 0Z" fill="#fffdda"></path><path d="M0 176.9C-4.9 142.9 -9.7 108.8 -25.9 113.3C-42 117.8 -69.4 160.9 -76.7 159.4C-84.1 157.9 -71.5 111.9 -75.3 94.4C-79 76.9 -99.2 88 -105 83.7C-110.8 79.4 -102.3 59.8 -100 48.2C-97.7 36.6 -101.7 33.1 -115.5 26.4C-129.4 19.7 -153.1 9.8 -176.9 0L0 0Z" fill="#fffcc1"></path><path d="M0 147.4C-4.1 119.1 -8.1 90.7 -21.6 94.4C-35 98.2 -57.8 134 -64 132.8C-70.1 131.6 -59.6 93.2 -62.7 78.7C-65.9 64.1 -82.6 73.3 -87.5 69.8C-92.3 66.2 -85.2 49.8 -83.3 40.1C-81.4 30.5 -84.7 27.5 -96.3 22C-107.8 16.4 -127.6 8.2 -147.4 0L0 0Z" fill="#fffca8"></path><path d="M0 117.9C-3.2 95.2 -6.5 72.6 -17.2 75.6C-28 78.6 -46.2 107.2 -51.2 106.2C-56.1 105.3 -47.7 74.6 -50.2 62.9C-52.7 51.3 -66.1 58.7 -70 55.8C-73.8 52.9 -68.2 39.8 -66.7 32.1C-65.2 24.4 -67.8 22 -77 17.6C-86.3 13.1 -102.1 6.6 -117.9 0L0 0Z" fill="#fffb8e"></path><path d="M0 88.4C-2.4 71.4 -4.9 54.4 -12.9 56.7C-21 58.9 -34.7 80.4 -38.4 79.7C-42.1 78.9 -35.8 55.9 -37.6 47.2C-39.5 38.5 -49.6 44 -52.5 41.9C-55.4 39.7 -51.1 29.9 -50 24.1C-48.9 18.3 -50.8 16.5 -57.8 13.2C-64.7 9.8 -76.6 4.9 -88.4 0L0 0Z" fill="#fffa73"></path><path d="M0 59C-1.6 47.6 -3.2 36.3 -8.6 37.8C-14 39.3 -23.1 53.6 -25.6 53.1C-28 52.6 -23.8 37.3 -25.1 31.5C-26.3 25.6 -33.1 29.3 -35 27.9C-36.9 26.5 -34.1 19.9 -33.3 16.1C-32.6 12.2 -33.9 11 -38.5 8.8C-43.1 6.6 -51 3.3 -59 0L0 0Z" fill="#fff954"></path><path d="M0 29.5C-0.8 23.8 -1.6 18.1 -4.3 18.9C-7 19.6 -11.6 26.8 -12.8 26.6C-14 26.3 -11.9 18.6 -12.5 15.7C-13.2 12.8 -16.5 14.7 -17.5 14C-18.5 13.2 -17 10 -16.7 8C-16.3 6.1 -16.9 5.5 -19.3 4.4C-21.6 3.3 -25.5 1.6 -29.5 0L0 0Z" fill="#fff942"></path></g><g transform="translate(0, 250)"><path d="M0 -235.8C15.7 -223.4 31.5 -210.9 46.3 -202.8C61.1 -194.7 75 -190.9 89.8 -186.5C104.7 -182.1 120.4 -177.2 136.5 -171.2C152.6 -165.3 169 -158.3 184.4 -147C199.7 -135.8 214 -120.4 210.8 -101.5C207.6 -82.7 186.9 -60.4 188.2 -42.9C189.4 -25.5 212.6 -12.7 235.8 0L0 0Z" fill="#fffef3"></path><path d="M0 -206.4C13.8 -195.5 27.5 -184.5 40.5 -177.4C53.5 -170.3 65.6 -167 78.6 -163.2C91.6 -159.4 105.4 -155 119.5 -149.8C133.6 -144.6 147.9 -138.5 161.3 -128.7C174.8 -118.9 187.3 -105.3 184.5 -88.8C181.7 -72.3 163.5 -52.9 164.6 -37.6C165.7 -22.3 186.1 -11.1 206.4 0L0 0Z" fill="#fffdda"></path><path d="M0 -176.9C11.8 -167.5 23.6 -158.2 34.7 -152.1C45.8 -146 56.2 -143.2 67.4 -139.9C78.5 -136.6 90.3 -132.9 102.4 -128.4C114.5 -123.9 126.8 -118.7 138.3 -110.3C149.8 -101.9 160.5 -90.3 158.1 -76.1C155.7 -62 140.2 -45.3 141.1 -32.2C142.1 -19.1 159.5 -9.5 176.9 0L0 0Z" fill="#fffcc1"></path><path d="M0 -147.4C9.8 -139.6 19.7 -131.8 28.9 -126.7C38.2 -121.7 46.9 -119.3 56.1 -116.6C65.4 -113.8 75.3 -110.7 85.3 -107C95.4 -103.3 105.7 -98.9 115.2 -91.9C124.8 -84.9 133.8 -75.2 131.8 -63.5C129.8 -51.7 116.8 -37.8 117.6 -26.8C118.4 -15.9 132.9 -8 147.4 0L0 0Z" fill="#fffca8"></path><path d="M0 -117.9C7.9 -111.7 15.7 -105.5 23.1 -101.4C30.5 -97.3 37.5 -95.4 44.9 -93.3C52.3 -91.1 60.2 -88.6 68.3 -85.6C76.3 -82.6 84.5 -79.1 92.2 -73.5C99.9 -67.9 107 -60.2 105.4 -50.8C103.8 -41.3 93.5 -30.2 94.1 -21.5C94.7 -12.7 106.3 -6.4 117.9 0L0 0Z" fill="#fffb8e"></path><path d="M0 -88.4C5.9 -83.8 11.8 -79.1 17.4 -76C22.9 -73 28.1 -71.6 33.7 -69.9C39.2 -68.3 45.2 -66.4 51.2 -64.2C57.2 -62 63.4 -59.4 69.1 -55.1C74.9 -50.9 80.3 -45.1 79.1 -38.1C77.9 -31 70.1 -22.7 70.6 -16.1C71 -9.5 79.7 -4.8 88.4 0L0 0Z" fill="#fffa73"></path><path d="M0 -59C3.9 -55.8 7.9 -52.7 11.6 -50.7C15.3 -48.7 18.7 -47.7 22.5 -46.6C26.2 -45.5 30.1 -44.3 34.1 -42.8C38.2 -41.3 42.3 -39.6 46.1 -36.8C49.9 -34 53.5 -30.1 52.7 -25.4C51.9 -20.7 46.7 -15.1 47 -10.7C47.4 -6.4 53.2 -3.2 59 0L0 0Z" fill="#fff954"></path><path d="M0 -29.5C2 -27.9 3.9 -26.4 5.8 -25.3C7.6 -24.3 9.4 -23.9 11.2 -23.3C13.1 -22.8 15.1 -22.1 17.1 -21.4C19.1 -20.7 21.1 -19.8 23 -18.4C25 -17 26.8 -15 26.4 -12.7C26 -10.3 23.4 -7.6 23.5 -5.4C23.7 -3.2 26.6 -1.6 29.5 0L0 0Z" fill="#fff942"></path></g></svg>