<svg xmlns="http://www.w3.org/2000/svg"
    xmlns:xlink="http://www.w3.org/1999/xlink"
    version="1.1"
    x="0px"
    y="0px"
    width="20%"
    height="20%"
    viewBox="0 0 100 100"
    enableBackground="new 0 0 100 100"
    xmlSpace="preserve"
>
    <g>
        <path
            fillRule="evenodd"
            clipRule="evenodd"
            fill="none"
            d="M0,97.469C0,66.414,0,35.351,0,4.291c33.336,0,66.668,0,100,0
									c0,31.056,0,62.108,0,93.178C66.665,97.469,33.331,97.469,0,97.469z M20.833,46.897c-0.485,0.239-1.028,0.47-1.536,0.762
									c-2.852,1.638-4.688,4.13-5.866,7.136c-1.675,4.27-1.845,8.674-0.913,13.115c1.423,6.773,4.977,12.238,10.448,16.451
									c4.575,3.523,9.813,5.527,15.445,6.568c4.216,0.779,8.476,1.092,12.762,1.037c3.916-0.053,7.783-0.494,11.562-1.557
									c4.774-1.34,9.117-3.488,12.57-7.127c5.372-5.664,7.346-12.381,5.887-20.051c-0.573-3.016-1.865-5.713-4.05-7.936
									c-0.116-0.119-0.14-0.387-0.119-0.576c0.155-1.453,0.333-2.906,0.504-4.36c0.013-0.105,0.035-0.21,0.059-0.347
									c0.185,0.076,0.327,0.139,0.473,0.193c2.63,0.982,5.239,2.025,7.896,2.925c2.033,0.689,4.145,1.053,6.313,0.762
									c1.466-0.197,2.774-0.742,3.773-1.867c1.923-2.161,2.053-5.668,0.341-8.207c-1.267-1.876-3.087-2.96-5.194-3.608
									c-3.024-0.93-6.14-1.112-9.28-1.054c-0.593,0.011-1.187,0.001-1.78,0.001c0.001-0.013-0.006-0.045,0.006-0.066
									c0.051-0.086,0.108-0.169,0.162-0.253c2.673-4.147,4.005-8.652,3.521-13.606c-0.321-3.305-1.522-6.227-4.038-8.507
									c-1.003-0.91-2.046-1.769-3.355-2.205c-0.8-0.266-1.592-0.298-2.247,0.358c-0.512,0.513-0.599,1.181-0.489,1.845
									c0.131,0.804,0.294,1.612,0.552,2.382c0.619,1.853,0.64,3.642-0.267,5.42c-0.966,1.893-2.377,3.396-3.98,4.749
									c-0.229,0.194-0.364,0.196-0.614,0.015c-1.683-1.214-3.442-2.274-5.508-2.732c-0.404-0.089-0.787-0.305-1.166-0.488
									c-0.645-0.311-1.257-0.706-1.924-0.952c-0.941-0.347-1.92-0.591-2.953-0.9c2.137-0.708,4.152-0.142,6.254,0.389
									c-1.264-1.415-2.65-2.453-4.448-2.852c-1.797-0.398-3.518-0.109-5.208,0.601c-0.209-1.291-0.763-2.333-1.797-3.189
									c-0.389,0.414-0.783,0.756-1.079,1.17c-0.293,0.41-0.487,0.891-0.745,1.38c-1.188-1.128-2.546-1.99-4.125-2.466
									c-1.588-0.478-3.184-0.586-4.872-0.041c2.189,0.712,4.08,1.667,5.109,3.856c-0.171,0-0.255,0.008-0.339-0.001
									c-1.008-0.115-2.015-0.259-3.026-0.344c-2.107-0.177-4.213-0.138-6.309,0.176c-0.215,0.033-0.331,0.004-0.417-0.225
									c-0.727-1.894-1.206-3.833-1.083-5.879c0.077-1.282,0.374-2.503,1.261-3.496c0.63-0.706,1.313-1.366,1.921-2.09
									c0.402-0.478,0.795-0.994,1.047-1.559c0.476-1.063,0.007-2.11-1.116-2.416c-0.717-0.195-1.506-0.271-2.248-0.212
									c-4.009,0.313-7.18,2.18-9.508,5.421c-3.236,4.507-4.231,9.581-3.602,15.027c0.069,0.599,0.176,1.193,0.273,1.837
									c-0.199-0.076-0.331-0.128-0.465-0.176c-1.591-0.566-3.163-1.204-4.781-1.682c-2.417-0.712-4.886-1.135-7.429-0.942
									c-4.006,0.305-7.062,2.902-7.864,6.84c-0.708,3.474,0.673,6.405,4.221,7.699c1.708,0.623,3.497,0.832,5.291,0.77
									c2.349-0.081,4.693-0.294,7.039-0.459c0.492-0.034,0.981-0.102,1.438-0.151C21.088,43.137,20.961,45.009,20.833,46.897z"
        />
        <path
            fillRule="evenodd"
            clipRule="evenodd"
            d="M20.833,46.897c0.128-1.888,0.255-3.76,0.386-5.69
									c-0.457,0.049-0.946,0.117-1.438,0.151c-2.345,0.165-4.689,0.378-7.039,0.459c-1.794,0.062-3.583-0.147-5.291-0.77
									c-3.548-1.294-4.929-4.225-4.221-7.699c0.803-3.938,3.858-6.536,7.864-6.84c2.543-0.193,5.012,0.23,7.429,0.942
									c1.618,0.478,3.189,1.115,4.781,1.682c0.134,0.048,0.266,0.101,0.465,0.176c-0.097-0.644-0.204-1.238-0.273-1.837
									c-0.629-5.446,0.365-10.52,3.602-15.027c2.328-3.242,5.5-5.109,9.508-5.421c0.742-0.058,1.53,0.017,2.248,0.212
									c1.123,0.306,1.592,1.354,1.116,2.416c-0.252,0.564-0.646,1.081-1.047,1.559c-0.608,0.724-1.291,1.384-1.921,2.09
									c-0.887,0.993-1.184,2.214-1.261,3.496c-0.123,2.045,0.356,3.985,1.083,5.879c0.087,0.229,0.203,0.257,0.417,0.225
									c2.095-0.314,4.201-0.353,6.309-0.176c1.011,0.085,2.018,0.229,3.026,0.344c0.083,0.01,0.168,0.001,0.339,0.001
									c-1.03-2.189-2.92-3.144-5.109-3.856c1.688-0.546,3.283-0.438,4.872,0.041c1.579,0.476,2.938,1.337,4.125,2.466
									c0.257-0.489,0.452-0.97,0.745-1.38c0.296-0.414,0.69-0.756,1.079-1.17c1.034,0.856,1.588,1.898,1.797,3.189
									c1.69-0.71,3.411-0.999,5.208-0.601c1.798,0.398,3.185,1.437,4.448,2.852c-2.102-0.531-4.117-1.096-6.254-0.389
									c1.033,0.309,2.012,0.553,2.953,0.9c0.667,0.246,1.279,0.641,1.924,0.952c0.379,0.183,0.762,0.398,1.166,0.488
									c2.065,0.458,3.825,1.518,5.508,2.732c0.25,0.181,0.385,0.179,0.614-0.015c1.604-1.353,3.015-2.856,3.98-4.749
									c0.906-1.778,0.886-3.567,0.267-5.42c-0.258-0.77-0.421-1.579-0.552-2.382c-0.109-0.664-0.022-1.332,0.489-1.845
									c0.655-0.657,1.447-0.624,2.247-0.358c1.31,0.436,2.353,1.295,3.355,2.205c2.516,2.28,3.717,5.203,4.038,8.507
									c0.483,4.954-0.849,9.458-3.521,13.606c-0.054,0.084-0.111,0.167-0.162,0.253c-0.012,0.021-0.005,0.053-0.006,0.066
									c0.594,0,1.188,0.009,1.78-0.001c3.141-0.059,6.256,0.124,9.28,1.054c2.107,0.648,3.928,1.732,5.194,3.608
									c1.712,2.539,1.582,6.046-0.341,8.207c-0.999,1.125-2.308,1.67-3.773,1.867c-2.168,0.291-4.279-0.072-6.313-0.762
									c-2.657-0.9-5.267-1.943-7.896-2.925c-0.146-0.055-0.288-0.117-0.473-0.193c-0.023,0.137-0.046,0.241-0.059,0.347
									c-0.171,1.454-0.349,2.907-0.504,4.36c-0.021,0.189,0.003,0.457,0.119,0.576c2.185,2.223,3.477,4.92,4.05,7.936
									c1.459,7.67-0.515,14.387-5.887,20.051c-3.453,3.639-7.796,5.787-12.57,7.127c-3.778,1.063-7.646,1.504-11.562,1.557
									c-4.286,0.055-8.546-0.258-12.762-1.037c-5.631-1.041-10.87-3.045-15.445-6.568c-5.471-4.213-9.025-9.678-10.448-16.451
									c-0.933-4.441-0.762-8.846,0.913-13.115c1.179-3.006,3.014-5.498,5.866-7.136C19.805,47.367,20.347,47.136,20.833,46.897z
									M49.581,91.514c1.826-0.102,3.732-0.172,5.632-0.322c3.302-0.262,6.529-0.918,9.653-2.029c3.684-1.311,7.022-3.205,9.798-5.988
									c3.951-3.963,6.108-8.758,6.431-14.352c0.196-3.379-0.359-6.637-1.893-9.684c-1.163-2.313-2.766-4.234-5.188-5.309
									c-2.273-1.006-4.675-1.135-7.09-0.736c-1.978,0.328-3.938,0.768-5.895,1.203c-2.764,0.613-5.536,1.148-8.38,1.18
									c-4.153,0.045-8.089-0.898-11.792-2.732c-2.363-1.17-4.644-2.505-6.966-3.758c-2.779-1.497-5.682-2.522-8.905-2.325
									c-2.214,0.135-4.304,0.654-6.158,1.931c-2.47,1.701-4.049,4.069-5.058,6.841c-1.458,4.008-1.6,8.123-0.733,12.256
									c1.695,8.076,6.292,14.098,13.32,18.293c5.112,3.053,10.744,4.479,16.619,5.039C45.146,91.227,47.322,91.348,49.581,91.514z
									M77.075,41.984c0.55-0.631,1.035-1.14,1.467-1.69c3.468-4.416,5.252-9.375,4.72-15.035c-0.38-4.063-2.214-7.31-5.685-9.542
									c-0.543-0.349-1.176-0.598-1.8-0.771c-0.809-0.225-1.444,0.28-1.533,1.114c-0.021,0.198-0.049,0.408-0.006,0.599
									c0.21,0.948,0.392,1.907,0.676,2.833c0.504,1.633,0.45,3.213-0.226,4.784c-0.771,1.787-1.966,3.256-3.375,4.566
									c-0.373,0.347-0.759,0.68-1.159,1.037C73.91,33.067,76.07,37.132,77.075,41.984z M24.788,30.944c2.75-4.352,6.62-6.912,11.573-7.9
									c-0.064-0.184-0.109-0.316-0.157-0.448c-0.55-1.516-0.96-3.063-1.024-4.685c-0.083-2.08,0.319-3.997,1.871-5.525
									c0.327-0.323,0.661-0.642,0.95-0.998c0.503-0.619,1.044-1.224,1.437-1.912c0.406-0.711,0.083-1.398-0.675-1.706
									c-0.236-0.095-0.493-0.162-0.746-0.188c-1.908-0.202-3.708,0.272-5.432,1.004c-2.271,0.964-3.985,2.622-5.361,4.638
									c-2.189,3.208-3.202,6.796-3.354,10.646C23.775,26.237,24.091,28.557,24.788,30.944z M13.588,38.387
									c0.744-0.044,1.488-0.072,2.229-0.137c1.192-0.104,2.353-0.348,3.423-0.913c1.248-0.658,1.828-1.701,1.563-2.903
									c-0.436-1.979-1.592-3.349-3.508-4.079c-1.23-0.468-2.504-0.727-3.803-0.844c-1.013-0.091-2,0.06-2.897,0.602
									c-1.356,0.82-2.184,2.011-2.467,3.561c-0.345,1.896,0.414,3.542,2.283,4.253C11.438,38.318,12.503,38.395,13.588,38.387z
									M85.659,42.062c-0.215,0-0.431,0.002-0.645,0c-1.643-0.014-3.003,0.597-4.115,1.802c-1.034,1.12-1.04,2.396,0.044,3.459
									c0.345,0.337,0.739,0.638,1.147,0.895c1.233,0.775,2.594,1.275,3.972,1.714c1.037,0.33,2.095,0.601,3.2,0.551
									c1.151-0.053,2.169-0.401,2.854-1.402c1.445-2.114,0.383-5.329-2.078-6.304C88.631,42.219,87.155,42.072,85.659,42.062z
									M57.96,54.408c-0.177-0.365-0.333-0.65-0.455-0.949c-0.623-1.508-0.663-3.071-0.355-4.645c0.487-2.491,1.644-4.604,3.673-6.18
									c0.952-0.738,2.034-1.22,3.255-1.166c1.612,0.072,2.752,0.94,3.395,2.391c1.041,2.356,0.727,4.704-0.202,7.013
									c-0.227,0.563-0.524,1.098-0.807,1.682c0.809-0.063,1.565-0.111,2.317-0.189c0.104-0.012,0.237-0.152,0.28-0.264
									c0.132-0.346,0.233-0.707,0.335-1.064c0.692-2.455,1.202-4.934,0.746-7.497c-0.25-1.405-0.828-2.647-2.012-3.539
									c-0.948-0.714-2.039-1.005-3.193-1.152c-1.919-0.244-3.64,0.225-5.154,1.418c-1.544,1.217-2.495,2.864-3.235,4.641
									c-1.279,3.074-1.854,6.306-2.093,9.608c-0.021,0.314,0.11,0.344,0.347,0.313C55.822,54.693,56.844,54.559,57.96,54.408z
									M39.273,51.355c0.77,0.385,1.569,0.783,2.402,1.199c0.078-0.197,0.152-0.336,0.188-0.484c0.304-1.236,0.624-2.469,0.894-3.712
									c0.417-1.921,0.609-3.863,0.532-5.835c-0.046-1.152-0.187-2.278-0.516-3.383c-0.714-2.39-2.166-4.073-4.614-4.787
									c-1.369-0.399-2.735-0.503-4.062,0.166c-1.476,0.742-2.364,2.014-3.022,3.46c-0.778,1.707-1.201,3.522-1.468,5.371
									c-0.137,0.947-0.199,1.906-0.268,2.862c-0.009,0.124,0.111,0.337,0.22,0.377c0.793,0.288,1.597,0.541,2.406,0.808
									c0.009-0.034,0.028-0.073,0.028-0.113c-0.001-0.071-0.006-0.145-0.022-0.213c-0.339-1.349-0.428-2.714-0.233-4.091
									c0.262-1.842,0.869-3.532,2.243-4.861c1.295-1.253,3.183-1.528,4.636-0.688c0.944,0.546,1.647,1.324,2.173,2.27
									c0.986,1.772,1.324,3.691,1.188,5.686c-0.104,1.514-0.466,2.981-1.325,4.264C40.257,50.236,39.762,50.756,39.273,51.355z
									M38.645,42.192c0.002-0.901-0.697-1.615-1.591-1.623c-0.882-0.007-1.619,0.707-1.64,1.591c-0.022,0.89,0.729,1.646,1.63,1.643
									C37.942,43.802,38.643,43.096,38.645,42.192z M64.883,46.266c0.007-0.907-0.676-1.603-1.585-1.615
									c-0.919-0.012-1.63,0.695-1.63,1.623c-0.001,0.883,0.723,1.601,1.614,1.604C64.167,47.88,64.876,47.166,64.883,46.266z"
        />
        <path
            fillRule="evenodd"
            clipRule="evenodd"
            fill="#FFFFFF"
            d="M49.581,91.514c-2.259-0.166-4.436-0.287-6.604-0.492
									c-5.875-0.561-11.507-1.986-16.619-5.039c-7.028-4.195-11.625-10.217-13.32-18.293c-0.867-4.133-0.725-8.248,0.733-12.256
									c1.008-2.771,2.587-5.14,5.058-6.841c1.854-1.277,3.944-1.796,6.158-1.931c3.223-0.197,6.126,0.828,8.905,2.325
									c2.322,1.252,4.603,2.588,6.966,3.758c3.703,1.834,7.64,2.777,11.792,2.732c2.844-0.031,5.616-0.566,8.38-1.18
									c1.957-0.436,3.917-0.875,5.895-1.203c2.415-0.398,4.816-0.27,7.09,0.736c2.422,1.074,4.024,2.996,5.188,5.309
									c1.533,3.047,2.089,6.305,1.893,9.684c-0.322,5.594-2.479,10.389-6.431,14.352c-2.775,2.783-6.114,4.678-9.798,5.988
									c-3.124,1.111-6.352,1.768-9.653,2.029C53.313,91.342,51.407,91.412,49.581,91.514z M31.662,73.854
									c0.295-0.359,0.557-0.645,0.781-0.953c0.194-0.271,0.172-0.557-0.115-0.754c-0.279-0.191-0.556-0.137-0.751,0.141
									c-0.529,0.752-1.23,1.182-2.162,1.217c-0.299,0.014-0.486,0.18-0.478,0.496c0.008,0.32,0.191,0.521,0.506,0.529
									c0.284,0.004,0.582-0.014,0.851-0.094c0.304-0.09,0.45-0.025,0.605,0.254c1.223,2.232,2.911,4.055,5.018,5.463
									c4.528,3.025,9.531,3.771,14.818,2.902c3.416-0.561,6.542-1.895,9.39-3.869c0.196-0.135,0.324-0.135,0.531-0.02
									c0.31,0.17,0.649,0.293,0.985,0.412c0.324,0.115,0.579-0.004,0.682-0.332c0.106-0.336-0.064-0.566-0.383-0.654
									c-0.896-0.246-1.492-0.816-1.864-1.648c-0.143-0.322-0.384-0.469-0.729-0.342c-0.3,0.109-0.386,0.43-0.211,0.805
									c0.132,0.283,0.292,0.553,0.448,0.844c-0.118,0.084-0.23,0.172-0.351,0.248c-4.191,2.613-8.735,3.93-13.693,3.699
									c-5.159-0.24-9.368-2.346-12.555-6.43C32.503,75.15,32.091,74.479,31.662,73.854z M60.843,65.926
									c2.217-0.002,4.739-1.813,5.447-3.912c0.557-1.65-0.154-2.924-1.871-3.109c-0.708-0.078-1.492,0.092-2.176,0.338
									c-1.69,0.602-2.948,1.746-3.652,3.42c-0.342,0.814-0.381,1.66,0.188,2.41C59.291,65.744,60.04,65.918,60.843,65.926z
									M37.486,60.023c-0.061-2.27-2.18-4.955-4.394-5.436c-0.481-0.104-1.038-0.09-1.512,0.043c-0.879,0.242-1.372,1.061-1.393,2.1
									c-0.018,0.916,0.251,1.764,0.702,2.541c0.878,1.518,2.066,2.676,3.84,3.078c1.144,0.262,2.092-0.188,2.509-1.207
									C37.382,60.795,37.407,60.398,37.486,60.023z"
        />
        <path
            fillRule="evenodd"
            clipRule="evenodd"
            fill="#CBC6C6"
            d="M77.075,41.984c-1.005-4.852-3.165-8.917-6.921-12.104
									c0.4-0.357,0.786-0.69,1.159-1.037c1.409-1.311,2.604-2.78,3.375-4.566c0.676-1.57,0.729-3.15,0.226-4.784
									c-0.284-0.926-0.466-1.885-0.676-2.833c-0.043-0.19-0.016-0.4,0.006-0.599c0.089-0.834,0.725-1.339,1.533-1.114
									c0.624,0.173,1.257,0.422,1.8,0.771c3.471,2.232,5.305,5.479,5.685,9.542c0.532,5.66-1.252,10.619-4.72,15.035
									C78.11,40.844,77.625,41.353,77.075,41.984z"
        />
        <path
            fillRule="evenodd"
            clipRule="evenodd"
            fill="#CBC6C6"
            d="M24.788,30.944c-0.696-2.387-1.012-4.707-0.919-7.074
									c0.152-3.85,1.165-7.438,3.354-10.646c1.376-2.016,3.09-3.674,5.361-4.638c1.724-0.732,3.524-1.207,5.432-1.004
									c0.253,0.027,0.51,0.093,0.746,0.188c0.758,0.308,1.081,0.995,0.675,1.706c-0.393,0.688-0.934,1.292-1.437,1.912
									c-0.289,0.355-0.623,0.675-0.95,0.998c-1.552,1.529-1.954,3.445-1.871,5.525c0.064,1.622,0.474,3.168,1.024,4.685
									c0.047,0.132,0.093,0.265,0.157,0.448C31.407,24.032,27.538,26.592,24.788,30.944z"
        />
        <path
            fillRule="evenodd"
            clipRule="evenodd"
            fill="#CBC6C6"
            d="M13.588,38.387c-1.085,0.008-2.15-0.069-3.176-0.46
									c-1.869-0.712-2.628-2.357-2.283-4.253c0.283-1.549,1.111-2.74,2.467-3.561c0.897-0.542,1.884-0.693,2.897-0.602
									c1.299,0.117,2.573,0.375,3.803,0.844c1.916,0.73,3.072,2.099,3.508,4.079c0.265,1.203-0.315,2.245-1.563,2.903
									c-1.07,0.565-2.23,0.809-3.423,0.913C15.076,38.315,14.332,38.342,13.588,38.387z"
        />
        <path
            fillRule="evenodd"
            clipRule="evenodd"
            fill="#CBC6C6"
            d="M85.659,42.062c1.496,0.011,2.972,0.158,4.379,0.715
									c2.461,0.975,3.523,4.19,2.078,6.304c-0.685,1-1.702,1.349-2.854,1.402c-1.105,0.05-2.163-0.221-3.2-0.551
									c-1.378-0.439-2.738-0.939-3.972-1.714c-0.408-0.257-0.803-0.558-1.147-0.895c-1.084-1.063-1.078-2.34-0.044-3.459
									c1.112-1.206,2.473-1.816,4.115-1.802C85.229,42.063,85.444,42.062,85.659,42.062z"
        />
        <path
            fillRule="evenodd"
            clipRule="evenodd"
            fill="#FFFFFF"
            d="M57.96,54.408c-1.116,0.15-2.138,0.285-3.159,0.422
									c-0.236,0.031-0.368,0.002-0.347-0.313c0.239-3.303,0.813-6.535,2.093-9.608c0.74-1.777,1.691-3.424,3.235-4.641
									c1.515-1.193,3.235-1.662,5.154-1.418c1.154,0.146,2.245,0.438,3.193,1.152c1.184,0.892,1.762,2.133,2.012,3.539
									c0.456,2.563-0.054,5.042-0.746,7.497c-0.102,0.357-0.203,0.719-0.335,1.064c-0.043,0.111-0.177,0.252-0.28,0.264
									c-0.752,0.078-1.509,0.127-2.317,0.189c0.282-0.584,0.58-1.119,0.807-1.682c0.929-2.309,1.243-4.657,0.202-7.013
									c-0.643-1.451-1.782-2.319-3.395-2.391c-1.221-0.054-2.303,0.428-3.255,1.166c-2.029,1.575-3.186,3.689-3.673,6.18
									c-0.308,1.574-0.268,3.137,0.355,4.645C57.627,53.758,57.783,54.043,57.96,54.408z"
        />
        <path
            fillRule="evenodd"
            clipRule="evenodd"
            fill="#FFFFFF"
            d="M39.273,51.355c0.489-0.599,0.984-1.12,1.378-1.707
									c0.859-1.283,1.221-2.75,1.325-4.264c0.136-1.995-0.201-3.914-1.188-5.686c-0.526-0.946-1.229-1.723-2.173-2.27
									c-1.453-0.84-3.341-0.565-4.636,0.688c-1.374,1.33-1.981,3.019-2.243,4.861c-0.195,1.377-0.106,2.742,0.233,4.091
									c0.017,0.069,0.021,0.143,0.022,0.213c0,0.04-0.019,0.08-0.028,0.113c-0.809-0.267-1.613-0.52-2.406-0.808
									c-0.108-0.04-0.229-0.254-0.22-0.377c0.069-0.956,0.131-1.915,0.268-2.862c0.267-1.849,0.69-3.664,1.468-5.371
									c0.659-1.446,1.546-2.718,3.022-3.46c1.327-0.668,2.693-0.565,4.062-0.166c2.448,0.714,3.899,2.396,4.614,4.787
									c0.33,1.104,0.47,2.231,0.516,3.383c0.078,1.972-0.114,3.914-0.532,5.835c-0.27,1.243-0.59,2.477-0.894,3.712
									c-0.036,0.148-0.11,0.287-0.188,0.484C40.842,52.139,40.042,51.74,39.273,51.355z"
        />
        <path
            fillRule="evenodd"
            clipRule="evenodd"
            fill="#FFFFFF"
            d="M38.645,42.192c-0.002,0.904-0.703,1.61-1.601,1.612
									c-0.902,0.002-1.652-0.753-1.63-1.643c0.021-0.884,0.758-1.598,1.64-1.591C37.947,40.577,38.646,41.291,38.645,42.192z"
        />
        <path
            fillRule="evenodd"
            clipRule="evenodd"
            fill="#E8EACC"
            d="M64.883,46.266c-0.007,0.9-0.716,1.614-1.601,1.612
									c-0.892-0.003-1.615-0.72-1.614-1.604c0-0.928,0.711-1.635,1.63-1.623C64.207,44.663,64.89,45.359,64.883,46.266z"
        />
        <path
            fillRule="evenodd"
            clipRule="evenodd"
            d="M31.662,73.854c0.429,0.625,0.841,1.297,1.323,1.914
									c3.187,4.084,7.396,6.189,12.555,6.43c4.958,0.23,9.502-1.086,13.693-3.699c0.12-0.076,0.232-0.164,0.351-0.248
									c-0.156-0.291-0.316-0.561-0.448-0.844c-0.175-0.375-0.089-0.695,0.211-0.805c0.345-0.127,0.586,0.02,0.729,0.342
									c0.372,0.832,0.968,1.402,1.864,1.648c0.318,0.088,0.489,0.318,0.383,0.654c-0.103,0.328-0.357,0.447-0.682,0.332
									c-0.336-0.119-0.676-0.242-0.985-0.412c-0.207-0.115-0.335-0.115-0.531,0.02c-2.848,1.975-5.974,3.309-9.39,3.869
									c-5.287,0.869-10.291,0.123-14.818-2.902c-2.107-1.408-3.795-3.23-5.018-5.463c-0.155-0.279-0.301-0.344-0.605-0.254
									c-0.269,0.08-0.566,0.098-0.851,0.094c-0.315-0.008-0.499-0.209-0.506-0.529c-0.008-0.316,0.179-0.482,0.478-0.496
									c0.932-0.035,1.633-0.465,2.162-1.217c0.196-0.277,0.472-0.332,0.751-0.141c0.288,0.197,0.31,0.482,0.115,0.754
									C32.219,73.209,31.958,73.494,31.662,73.854z"
        />
        <path
            fillRule="evenodd"
            clipRule="evenodd"
            d="M60.843,65.926c-0.803-0.008-1.552-0.182-2.064-0.854
									c-0.568-0.75-0.529-1.596-0.188-2.41c0.704-1.674,1.962-2.818,3.652-3.42c0.684-0.246,1.468-0.416,2.176-0.338
									c1.717,0.186,2.428,1.459,1.871,3.109C65.582,64.113,63.06,65.924,60.843,65.926z"
        />
        <path
            fillRule="evenodd"
            clipRule="evenodd"
            d="M37.486,60.023c-0.079,0.375-0.104,0.771-0.248,1.119
									c-0.417,1.02-1.365,1.469-2.509,1.207c-1.773-0.402-2.962-1.561-3.84-3.078c-0.451-0.777-0.719-1.625-0.702-2.541
									c0.021-1.039,0.514-1.857,1.393-2.1c0.474-0.133,1.03-0.146,1.512-0.043C35.307,55.068,37.426,57.754,37.486,60.023z"
        />
    </g>
</svg>