<svg id="visual" viewBox="0 0 450 100" width="450" height="100" xmlns="http://www.w3.org/2000/svg" xmlns:xlink="http://www.w3.org/1999/xlink" version="1.1"><rect x="0" y="0" width="450" height="100" fill="#FFFFFF"></rect><path d="M0 47L7.5 45.7C15 44.3 30 41.7 45 43.3C60 45 75 51 90 47.3C105 43.7 120 30.3 135 23C150 15.7 165 14.3 180 13.5C195 12.7 210 12.3 225 20.8C240 29.3 255 46.7 270 52.3C285 58 300 52 315 48C330 44 345 42 360 37C375 32 390 24 405 22.5C420 21 435 26 442.5 28.5L450 31L450 0L442.5 0C435 0 420 0 405 0C390 0 375 0 360 0C345 0 330 0 315 0C300 0 285 0 270 0C255 0 240 0 225 0C210 0 195 0 180 0C165 0 150 0 135 0C120 0 105 0 90 0C75 0 60 0 45 0C30 0 15 0 7.5 0L0 0Z" fill="#fff700" stroke-linecap="round" stroke-linejoin="miter"></path></svg>