<svg id="visual" viewBox="0 0 2000 2000" width="2000" height="2000"
    xmlns="http://www.w3.org/2000/svg" xmlns:xlink="http://www.w3.org/1999/xlink" version="1.1">
    <rect x="0" y="0" width="2000" height="2000" fill="#FDFBC8"></rect>
    <path
        d="M0 1398L16.7 1366.5C33.3 1335 66.7 1272 100 1248C133.3 1224 166.7 1239 200 1180.3C233.3 1121.7 266.7 989.3 300 948.3C333.3 907.3 366.7 957.7 400 944.8C433.3 932 466.7 856 500 816.2C533.3 776.3 566.7 772.7 600 798.8C633.3 825 666.7 881 700 912.5C733.3 944 766.7 951 800 928.8C833.3 906.7 866.7 855.3 900 896.5C933.3 937.7 966.7 1071.3 1000 1052.8C1033.3 1034.3 1066.7 863.7 1100 838C1133.3 812.3 1166.7 931.7 1200 1048C1233.3 1164.3 1266.7 1277.7 1300 1351.5C1333.3 1425.3 1366.7 1459.7 1400 1346.7C1433.3 1233.7 1466.7 973.3 1500 837.7C1533.3 702 1566.7 691 1600 724.5C1633.3 758 1666.7 836 1700 949.8C1733.3 1063.7 1766.7 1213.3 1800 1275C1833.3 1336.7 1866.7 1310.3 1900 1269.3C1933.3 1228.3 1966.7 1172.7 1983.3 1144.8L2000 1117L2000 0L1983.3 0C1966.7 0 1933.3 0 1900 0C1866.7 0 1833.3 0 1800 0C1766.7 0 1733.3 0 1700 0C1666.7 0 1633.3 0 1600 0C1566.7 0 1533.3 0 1500 0C1466.7 0 1433.3 0 1400 0C1366.7 0 1333.3 0 1300 0C1266.7 0 1233.3 0 1200 0C1166.7 0 1133.3 0 1100 0C1066.7 0 1033.3 0 1000 0C966.7 0 933.3 0 900 0C866.7 0 833.3 0 800 0C766.7 0 733.3 0 700 0C666.7 0 633.3 0 600 0C566.7 0 533.3 0 500 0C466.7 0 433.3 0 400 0C366.7 0 333.3 0 300 0C266.7 0 233.3 0 200 0C166.7 0 133.3 0 100 0C66.7 0 33.3 0 16.7 0L0 0Z"
        fill="#fffee8"></path>
    <path
        d="M0 843L16.7 780.2C33.3 717.3 66.7 591.7 100 564.3C133.3 537 166.7 608 200 626.7C233.3 645.3 266.7 611.7 300 628.2C333.3 644.7 366.7 711.3 400 690.7C433.3 670 466.7 562 500 572.7C533.3 583.3 566.7 712.7 600 780.5C633.3 848.3 666.7 854.7 700 801.8C733.3 749 766.7 637 800 634.3C833.3 631.7 866.7 738.3 900 813.2C933.3 888 966.7 931 1000 942.5C1033.3 954 1066.7 934 1100 866.8C1133.3 799.7 1166.7 685.3 1200 634.8C1233.3 584.3 1266.7 597.7 1300 645.5C1333.3 693.3 1366.7 775.7 1400 764.2C1433.3 752.7 1466.7 647.3 1500 585.2C1533.3 523 1566.7 504 1600 577.3C1633.3 650.7 1666.7 816.3 1700 901C1733.3 985.7 1766.7 989.3 1800 911.5C1833.3 833.7 1866.7 674.3 1900 593C1933.3 511.7 1966.7 508.3 1983.3 506.7L2000 505L2000 0L1983.3 0C1966.7 0 1933.3 0 1900 0C1866.7 0 1833.3 0 1800 0C1766.7 0 1733.3 0 1700 0C1666.7 0 1633.3 0 1600 0C1566.7 0 1533.3 0 1500 0C1466.7 0 1433.3 0 1400 0C1366.7 0 1333.3 0 1300 0C1266.7 0 1233.3 0 1200 0C1166.7 0 1133.3 0 1100 0C1066.7 0 1033.3 0 1000 0C966.7 0 933.3 0 900 0C866.7 0 833.3 0 800 0C766.7 0 733.3 0 700 0C666.7 0 633.3 0 600 0C566.7 0 533.3 0 500 0C466.7 0 433.3 0 400 0C366.7 0 333.3 0 300 0C266.7 0 233.3 0 200 0C166.7 0 133.3 0 100 0C66.7 0 33.3 0 16.7 0L0 0Z"
        fill="#fffff6"></path>
</svg>