<svg id="Layer_1" data-name="Layer 1" xmlns="http://www.w3.org/2000/svg" width="558.64" 
height="139.63" viewBox="0 0 558.64 140.73"><defs><style>.cls-1{fill:#0B0A07;}.cls-2{fill:#0B0A07;}</style></defs><path class="cls-1" d="M-93.61,57.15c-7.5.6-23.09,2-29.19-1.4-5.39-3.1-2.89-11.29-2.89-11.59V44c0-.2,3.89-15.5,8.89-37.48C-111.3-17.61-90-18.81-89.72-18.81a2.79,2.79,0,0,1,2.6,1.1,6.77,6.77,0,0,1,.9,3.2l-.2,9.69-5.79-1.29-.1-6.1c-5.1,1.1-14.4,5.1-17.79,20-4.8,20.88-8.5,35.78-8.9,37.27-.1.4-.9,3.5,1.6,5,3,1.8,19.09.4,26.28-.6Z" transform="translate(126.27 18.82)"/><path class="cls-1" d="M-9.56,120.71c-9.9,0-18.49-8.7-24.09-16.09A44.91,44.91,0,0,1-42,85.33c-2.8-17,2.09-27.28,12.09-40.48,10.29-13.49,7.29-28.38,6.09-32.68-1.59-5.59-5.79-25.08-5.89-25.88a4,4,0,0,1,3.1-4.8,4,4,0,0,1,4.79,3.1c0,.2,4.3,20.09,5.8,25.49,1.4,5.19,5.1,23.28-7.5,39.67-8.89,11.59-12.89,20.09-10.59,34.18a35.92,35.92,0,0,0,6.8,15.79c6.29,8.3,12.49,12.89,17.59,12.89" transform="translate(126.27 18.82)"/><path class="cls-1" d="M-9.76,112.61h438a4,4,0,0,1,4.06,4,3.65,3.65,0,0,1-3.75,4.1H-9.56" transform="translate(126.27 18.82)"/><path class="cls-1" d="M-90.32,121.91a4.08,4.08,0,0,1-2.59-.9,4.2,4.2,0,0,1-1.5-3.1V-14.41a4,4,0,0,1,4-4,4,4,0,0,1,4,4V112.71c9.2-2.79,28.38-11.19,29.68-31.88a43.5,43.5,0,0,0,.1-5c-.2-8.8-5-15-11.09-22.79-.8-1-1.6-2.1-2.5-3.2-12.59-16.49-8.89-34.58-7.49-39.67,1.5-5.4,5.79-25.29,5.79-25.49a4,4,0,0,1,4.8-3.1,4,4,0,0,1,3.1,4.8c-.2.8-4.4,20.29-5.9,25.88-1.2,4.2-4.2,19.19,6.1,32.68.8,1.1,1.6,2.1,2.4,3.1,6.69,8.6,12.49,16,12.79,27.49,0,1.5-.1,5.29-.1,5.69-2.1,33.08-40.68,40.58-41,40.68Z" transform="translate(126.27 18.82)"/><path class="cls-1" d="M-37.55,26.67a4,4,0,0,1-4-3.8L-44-14.21a4.1,4.1,0,0,1,3.79-4.3,4,4,0,0,1,4.3,3.8l2.5,37.08a4.1,4.1,0,0,1-3.8,4.3Z" transform="translate(126.27 18.82)"/><path class="cls-1" d="M-52.94,27a4,4,0,0,1-4-4V-14.41a4,4,0,0,1,4-4,4,4,0,0,1,4,4V23A3.89,3.89,0,0,1-52.94,27Z" transform="translate(126.27 18.82)"/><path class="cls-2" d="M1.43,86.83,3.2-15.23H22.48L37,55.45,52.09-15.23H70.73L72.62,86.83H58.76L57.25,15.89,42.76,86.83H31.55L16.81,15.64,15.42,86.83Z" transform="translate(126.27 18.82)"/><path class="cls-2" d="M106.27,88q-8.2,0-13.36-3.09a18.25,18.25,0,0,1-7.62-9.07,37.91,37.91,0,0,1-2.46-14.42V39.45a38.19,38.19,0,0,1,2.46-14.61A18,18,0,0,1,93,15.89q5.23-3,13.3-3,8.69,0,13.54,3.27a18,18,0,0,1,6.93,9.51,48.3,48.3,0,0,1,2.08,15.19V51.17h-29V65.53a20.31,20.31,0,0,0,.69,5.8,5.81,5.81,0,0,0,2.21,3.28,6.43,6.43,0,0,0,3.65,1,5.81,5.81,0,0,0,3.66-1.07,6,6,0,0,0,2-3.15,18.32,18.32,0,0,0,.63-5.23v-6h16V65q0,11.09-5.54,17T106.27,88ZM99.84,42.73h12.85V35.8a24.1,24.1,0,0,0-.63-6.11,6.21,6.21,0,0,0-2-3.41,6.31,6.31,0,0,0-3.91-1.07,5.55,5.55,0,0,0-3.65,1.14,6.67,6.67,0,0,0-2,3.78,34.57,34.57,0,0,0-.63,7.56Z" transform="translate(126.27 18.82)"/><path class="cls-2" d="M138,86.83V14h17.13v7.31a37.1,37.1,0,0,1,8.26-6.11,19.44,19.44,0,0,1,9.38-2.33,10.89,10.89,0,0,1,7.19,2.2,12.9,12.9,0,0,1,3.9,5.86,24.21,24.21,0,0,1,1.26,7.94v58H168V32.27a10.33,10.33,0,0,0-1-5c-.68-1.18-2-1.76-3.91-1.76a8.85,8.85,0,0,0-3.84,1,26.34,26.34,0,0,0-4.1,2.52V86.83Z" transform="translate(126.27 18.82)"/><path class="cls-2" d="M207.06,88a11,11,0,0,1-7.05-2.2,12.47,12.47,0,0,1-4-5.93A24.31,24.31,0,0,1,194.72,72V14h17.13V68.81a10.16,10.16,0,0,0,1.07,5.1c.72,1.22,2,1.83,4,1.83a8.42,8.42,0,0,0,3.85-1,29.25,29.25,0,0,0,3.84-2.39V14h17.14V86.83H224.58V79.9a34.09,34.09,0,0,1-8.06,5.79A20.34,20.34,0,0,1,207.06,88Z" transform="translate(126.27 18.82)"/><path class="cls-2" d="M260.24,86.83,249,14h14.24l6.43,47.25L277.25,14H290l7.18,47.75L304.08,14h13.49L306.1,86.83H291.61l-8.06-46-8.45,46Z" transform="translate(126.27 18.82)"/><path class="cls-2" d="M346.92,88q-8.19,0-13.35-3.09a18.27,18.27,0,0,1-7.63-9.07,38.11,38.11,0,0,1-2.45-14.42V39.45a38.39,38.39,0,0,1,2.45-14.61,17.94,17.94,0,0,1,7.69-8.95c3.48-2,7.92-3,13.29-3q8.7,0,13.55,3.27a18,18,0,0,1,6.93,9.51,48.59,48.59,0,0,1,2.08,15.19V51.17h-29V65.53a20.31,20.31,0,0,0,.69,5.8,5.81,5.81,0,0,0,2.21,3.28,6.41,6.41,0,0,0,3.65,1,5.76,5.76,0,0,0,3.65-1.07,6,6,0,0,0,2-3.15,18.32,18.32,0,0,0,.63-5.23v-6h16V65q0,11.09-5.54,17T346.92,88ZM340.5,42.73h12.85V35.8a24.1,24.1,0,0,0-.63-6.11,6.16,6.16,0,0,0-2-3.41,6.26,6.26,0,0,0-3.9-1.07,5.58,5.58,0,0,0-3.66,1.14,6.73,6.73,0,0,0-2,3.78,34.57,34.57,0,0,0-.63,7.56Z" transform="translate(126.27 18.82)"/><path class="cls-2" d="M410.05,88a15.76,15.76,0,0,1-7.56-1.89,31.9,31.9,0,0,1-6.55-4.66v5.42H378.8V-15.23h17.14V19.54a27.37,27.37,0,0,1,6.86-4.85,18,18,0,0,1,8-1.82,13.49,13.49,0,0,1,8.07,2.26,15.39,15.39,0,0,1,4.91,6,29.36,29.36,0,0,1,2.46,7.94,50.3,50.3,0,0,1,.69,8.12v24.7a47.07,47.07,0,0,1-1.7,13.1,20.43,20.43,0,0,1-5.42,9.45A13.56,13.56,0,0,1,410.05,88ZM403.5,76a4.71,4.71,0,0,0,4.09-1.83,11,11,0,0,0,1.77-4.91,48.39,48.39,0,0,0,.44-6.74V36.43a33.13,33.13,0,0,0-.51-6.11A9.54,9.54,0,0,0,407.47,26a5,5,0,0,0-4.1-1.64,8.67,8.67,0,0,0-3.91,1,28.12,28.12,0,0,0-3.52,2.08v46a17.48,17.48,0,0,0,3.59,1.89A11,11,0,0,0,403.5,76Z" transform="translate(126.27 18.82)"/></svg>