<svg version="1.1" xmlns="http://www.w3.org/2000/svg" xmlns:xlink="http://www.w3.org/1999/xlink"
	x="0px" y="0px" width="100%" height="100%" viewBox="0 0 100 100"
	enable-background="new 0 0 100 100" xml:space="preserve">
<g id="Layer_2" display="none">
	
		<rect x="-9.5" y="-5.5" display="inline" fill-rule="evenodd" clip-rule="evenodd" fill="#267F00" stroke="#FFFFFF" stroke-miterlimit="10" width="115" height="117"/>
</g>
<g id="Layer_1">
	<g>
		<path fill-rule="evenodd" clip-rule="evenodd" fill="none" d="M0.391,59.766c0-19.466,0.007-38.933-0.024-58.398
			c-0.001-0.838,0.162-1.001,1-1c32.683,0.028,65.364,0.028,98.047,0c0.839-0.001,1.002,0.162,1,1
			c-0.03,19.075-0.023,38.151-0.023,57.227c-0.433-0.394-0.354-0.95-0.469-1.448c-1.303-5.717-6.513-9.476-11.222-9.469
			c-1.505,0.002-2.994,0.021-4.417,0.575c-0.725,0.282-1.053,0.102-1.174-0.706c-0.163-1.09-0.414-2.173-0.703-3.238
			c-3.218-11.876-16.102-18.641-27.719-14.566c-1.791,0.628-1.884,0.737-1.885,2.653c-0.005,12.435-0.006,24.869,0.001,37.304
			c0.001,2.256,0.246,2.518,2.433,2.52c10.872,0.009,21.744,0.034,32.616-0.011c6.244-0.025,10.84-3.881,12.146-10.036
			c0.066-0.314,0.068-0.651,0.393-0.842c0,12.695-0.011,25.391,0.024,38.086c0.002,0.839-0.162,1.001-1.001,1
			c-32.683-0.027-65.364-0.027-98.047,0c-0.838,0.001-1.003-0.161-1-1c0.035-12.565,0.024-25.13,0.024-37.695
			c0.514,0.44,0.372,1.066,0.461,1.627c0.132,0.828,0.251,1.659,0.396,2.486c0.028,0.16,0.054,0.429,0.341,0.325
			c0.099-0.035,0.206-0.162,0.233-0.268c0.918-3.505,0.834-7.012,0.003-10.517c-0.023-0.099-0.152-0.22-0.25-0.239
			c-0.087-0.017-0.263,0.073-0.288,0.151c-0.076,0.245-0.061,0.521-0.149,0.758C0.694,57.246,1.151,58.629,0.391,59.766z
			 M48.531,51.173c0.042,3.319-0.233,8.197,0,13.074c0.103,2.143,0.257,4.283,0.374,6.426c0.04,0.733,0.358,1.261,1.08,1.432
			c0.604,0.144,1.239-0.474,1.421-1.314c0.041-0.188,0.045-0.387,0.056-0.582c0.141-2.465,0.345-4.93,0.405-7.396
			c0.143-5.723-0.037-11.442-0.22-17.163c-0.129-4.03-0.125-8.064-0.218-12.095c-0.033-1.426-0.497-2.057-1.317-2.029
			c-0.804,0.027-1.185,0.669-1.216,2.1C48.782,38.954,48.674,44.285,48.531,51.173z M44.703,52.144
			c-0.671,5.922-0.192,11.249-0.055,16.578c0.024,0.912,0.069,1.824,0.347,2.701c0.125,0.394,0.405,0.664,0.834,0.727
			c0.526,0.077,0.889-0.203,1.106-0.628c0.141-0.277,0.207-0.616,0.221-0.932c0.161-3.574,0.446-7.15,0.424-10.725
			c-0.049-7.808-0.255-15.614-0.407-23.421c-0.01-0.517-0.065-1.04-0.17-1.545c-0.117-0.563-0.478-0.928-1.094-0.911
			c-0.624,0.018-0.945,0.389-0.993,0.987c-0.083,1.037-0.199,2.075-0.204,3.113C44.691,42.969,44.703,47.85,44.703,52.144z
			 M42.958,52.583c0-1.949,0.013-3.898-0.003-5.848c-0.02-2.342-0.058-4.685-0.103-7.027c-0.015-0.758-0.199-1.467-1.09-1.604
			c-0.572-0.088-1.016,0.6-1.085,1.565c-0.014,0.195-0.003,0.391-0.008,0.586c-0.149,6.178-0.307,12.356-0.446,18.535
			c-0.091,4.037,0.246,8.061,0.458,12.088c0.033,0.641,0.216,1.213,0.936,1.269c0.817,0.063,1.11-0.531,1.223-1.233
			c0.03-0.192,0.031-0.389,0.042-0.584C43.222,64.419,43.528,58.507,42.958,52.583z M38.992,52.089
			c-0.198-3.976-0.41-8.389-0.406-12.808c0.001-0.387,0.01-0.774-0.185-1.139c-0.196-0.368-0.437-0.636-0.893-0.621
			c-0.447,0.015-0.696,0.25-0.846,0.663c-0.185,0.505-0.155,1.024-0.164,1.541c-0.069,3.768,0.011,7.545-0.233,11.301
			c-0.402,6.178-0.165,12.334,0.18,18.497c0.04,0.711-0.016,1.441,0.361,2.089c0.366,0.631,0.958,0.655,1.421,0.104
			c0.27-0.322,0.336-0.688,0.359-1.083c0.13-2.139,0.26-4.277,0.398-6.415C39.234,60.32,38.963,56.423,38.992,52.089z
			 M32.079,52.105c0,0.74,0.012,1.065-0.002,1.391c-0.235,5.525-0.141,11.044,0.38,16.553c0.048,0.515-0.034,1.059,0.257,1.519
			c0.129,0.206,0.334,0.43,0.552,0.501c0.359,0.118,0.608-0.182,0.783-0.442c0.137-0.204,0.223-0.475,0.241-0.722
			c0.255-3.63,0.725-7.263,0.688-10.89c-0.071-7.085-0.426-14.167-0.667-21.25c-0.04-1.177-0.455-2.005-0.95-1.847
			c-0.836,0.267-0.86,1.012-0.881,1.758C32.353,43.291,32.207,47.905,32.079,52.105z M30.514,51.234
			c-0.042,0-0.084,0.001-0.127,0.002c0-1.626,0.041-3.253-0.01-4.877c-0.078-2.534-0.218-5.066-0.333-7.599
			c-0.022-0.491-0.167-0.945-0.734-0.972c-0.572-0.028-0.755,0.401-0.793,0.901c-0.01,0.129-0.014,0.259-0.02,0.389
			c-0.097,2.273-0.216,4.546-0.284,6.82c-0.069,2.34,0.056,4.695-0.16,7.02c-0.5,5.405-0.046,10.783,0.224,16.17
			c0.029,0.583,0.121,1.164,0.209,1.742c0.078,0.503,0.089,1.163,0.757,1.182c0.647,0.018,0.781-0.567,0.82-1.118
			c0.014-0.194,0.034-0.389,0.05-0.583c0.313-3.82,0.778-7.633,0.674-11.476C30.72,56.301,30.607,53.769,30.514,51.234z
			 M26.437,51.401c-0.421-3.29-0.22-6.421-0.444-9.533c-0.058-0.796,0.188-2.147-0.739-2.168c-1.225-0.029-0.847,1.367-0.885,2.175
			c-0.139,2.922-0.076,5.855-0.273,8.772c-0.45,6.634-0.243,13.252,0.268,19.87c0.048,0.628,0.018,1.547,0.821,1.531
			c0.763-0.014,0.783-0.937,0.837-1.564c0.183-2.136,0.283-4.278,0.477-6.413C26.887,59.781,26.37,55.503,26.437,51.401z M19.935,56
			c0.015,0.001,0.031,0.002,0.046,0.002c-0.102,1.619-0.344,3.243-0.275,4.854c0.14,3.238,0.449,6.471,0.69,9.705
			c0.02,0.258,0.012,0.53,0.097,0.768c0.128,0.355,0.276,0.819,0.75,0.739c0.301-0.052,0.491-0.4,0.523-0.753
			c0.086-0.969,0.187-1.937,0.255-2.907c0.267-3.748,0.777-7.479,0.489-11.26c-0.305-4.01-0.464-8.031-0.704-12.046
			c-0.035-0.597,0.231-1.547-0.675-1.542c-0.826,0.004-0.701,0.93-0.729,1.55C20.238,48.74,20.089,52.37,19.935,56z M18.682,60.702
			c-0.45-1.778-0.333-3.611-0.572-5.414c-0.188-1.411-0.263-2.838-0.432-4.254c-0.042-0.349-0.055-0.868-0.567-0.88
			c-0.483-0.011-0.588,0.413-0.621,0.822c-0.26,3.229-0.731,6.458-0.722,9.687c0.01,3.491,0.471,6.98,0.73,10.471
			c0.025,0.341,0.089,0.689,0.463,0.758c0.554,0.102,0.574-0.372,0.669-0.735c0.4-1.521,0.208-3.101,0.461-4.64
			C18.406,64.597,18.233,62.628,18.682,60.702z M14.569,60.743c-0.331-3.619-0.654-7.174-0.983-10.727
			c-0.024-0.259-0.094-0.559-0.401-0.589c-0.406-0.041-0.555,0.277-0.585,0.612c-0.087,0.97-0.106,1.946-0.226,2.91
			c-0.635,5.11-0.653,10.217,0.003,15.326c0.124,0.965,0.179,1.938,0.277,2.905c0.029,0.288,0.236,0.501,0.498,0.51
			c0.306,0.011,0.402-0.272,0.428-0.541C13.914,67.663,14.243,64.177,14.569,60.743z M10.564,60.767
			c-0.184-2.063-0.359-4.135-0.555-6.204c-0.135-1.422-0.288-2.842-0.462-4.259c-0.028-0.228-0.165-0.537-0.495-0.425
			c-0.144,0.049-0.306,0.271-0.323,0.429c-0.111,1.033-0.182,2.07-0.27,3.106c-0.193,2.264-0.42,4.526-0.574,6.794
			c-0.149,2.217,0.406,4.395,0.46,6.606c0.032,1.295,0.239,2.586,0.372,3.878c0.028,0.279,0.192,0.57,0.44,0.562
			c0.245-0.01,0.375-0.321,0.432-0.587c0.014-0.063,0.024-0.128,0.03-0.192C9.936,67.244,10.249,64.013,10.564,60.767z
			 M6.627,60.941c-0.169-1.571-0.326-3.115-0.503-4.657c-0.14-1.222-0.294-2.442-0.466-3.659c-0.052-0.37-0.076-0.965-0.438-0.978
			c-0.476-0.018-0.396,0.569-0.438,0.936c-0.113,0.963-0.13,1.943-0.314,2.893c-0.88,4.539-0.105,9.026,0.37,13.523
			c0.027,0.253,0.107,0.604,0.387,0.603c0.264-0.002,0.297-0.363,0.329-0.596C5.919,66.313,6.272,63.618,6.627,60.941z"/>
		<path fill-rule="evenodd" clip-rule="evenodd" d="M100.391,61.328c-0.324,0.19-0.326,0.527-0.393,0.842
			c-1.306,6.155-5.901,10.011-12.146,10.036c-10.872,0.045-21.744,0.02-32.616,0.011c-2.187-0.002-2.432-0.264-2.433-2.52
			c-0.007-12.435-0.006-24.869-0.001-37.304c0.001-1.916,0.094-2.024,1.885-2.653c11.617-4.075,24.501,2.69,27.719,14.566
			c0.289,1.065,0.54,2.148,0.703,3.238c0.121,0.808,0.449,0.988,1.174,0.706c1.423-0.554,2.912-0.573,4.417-0.575
			c4.709-0.006,9.919,3.752,11.222,9.469c0.114,0.498,0.036,1.055,0.469,1.448C100.391,59.505,100.391,60.417,100.391,61.328z"/>
		<path fill-rule="evenodd" clip-rule="evenodd" d="M0.391,59.766c0.761-1.137,0.303-2.52,0.749-3.723
			c0.088-0.237,0.073-0.513,0.149-0.758c0.024-0.078,0.201-0.168,0.288-0.151c0.098,0.02,0.227,0.141,0.25,0.239
			c0.831,3.505,0.915,7.012-0.003,10.517c-0.028,0.105-0.134,0.232-0.233,0.268c-0.287,0.104-0.313-0.165-0.341-0.325
			c-0.145-0.827-0.265-1.658-0.396-2.486c-0.089-0.561,0.053-1.187-0.461-1.627C0.391,61.067,0.391,60.417,0.391,59.766z"/>
		<path fill-rule="evenodd" clip-rule="evenodd" d="M48.531,51.173c0.143-6.888,0.25-12.219,0.365-17.549
			c0.031-1.431,0.412-2.072,1.216-2.1c0.82-0.028,1.284,0.603,1.317,2.029c0.093,4.031,0.089,8.065,0.218,12.095
			c0.183,5.721,0.362,11.44,0.22,17.163c-0.061,2.467-0.265,4.932-0.405,7.396c-0.011,0.195-0.015,0.394-0.056,0.582
			c-0.183,0.841-0.817,1.458-1.421,1.314c-0.722-0.171-1.04-0.698-1.08-1.432c-0.117-2.143-0.271-4.283-0.374-6.426
			C48.298,59.37,48.573,54.492,48.531,51.173z"/>
		<path fill-rule="evenodd" clip-rule="evenodd" d="M44.703,52.144c0-4.293-0.012-9.174,0.01-14.055
			c0.004-1.038,0.121-2.076,0.204-3.113c0.048-0.598,0.369-0.969,0.993-0.987c0.616-0.017,0.978,0.347,1.094,0.911
			c0.104,0.505,0.16,1.028,0.17,1.545c0.152,7.807,0.358,15.613,0.407,23.421c0.022,3.574-0.263,7.15-0.424,10.725
			c-0.014,0.315-0.08,0.654-0.221,0.932c-0.217,0.425-0.58,0.705-1.106,0.628c-0.429-0.063-0.71-0.333-0.834-0.727
			c-0.278-0.877-0.323-1.789-0.347-2.701C44.511,63.393,44.032,58.065,44.703,52.144z"/>
		<path fill-rule="evenodd" clip-rule="evenodd" d="M42.958,52.583c0.571,5.924,0.264,11.836-0.077,17.747
			c-0.011,0.195-0.012,0.392-0.042,0.584c-0.113,0.702-0.406,1.297-1.223,1.233c-0.72-0.056-0.902-0.628-0.936-1.269
			c-0.211-4.027-0.548-8.051-0.458-12.088c0.139-6.179,0.297-12.356,0.446-18.535c0.005-0.195-0.005-0.391,0.008-0.586
			c0.069-0.965,0.513-1.653,1.085-1.565c0.891,0.137,1.075,0.845,1.09,1.604c0.045,2.342,0.083,4.685,0.103,7.027
			C42.971,48.685,42.958,50.634,42.958,52.583z"/>
		<path fill-rule="evenodd" clip-rule="evenodd" d="M38.992,52.089c-0.029,4.334,0.243,8.231-0.008,12.129
			c-0.138,2.138-0.268,4.276-0.398,6.415c-0.023,0.396-0.09,0.761-0.359,1.083c-0.464,0.552-1.055,0.527-1.421-0.104
			c-0.376-0.647-0.321-1.378-0.361-2.089c-0.345-6.163-0.582-12.319-0.18-18.497c0.244-3.756,0.164-7.534,0.233-11.301
			c0.009-0.517-0.021-1.036,0.164-1.541c0.15-0.413,0.399-0.648,0.846-0.663c0.456-0.015,0.696,0.253,0.893,0.621
			c0.195,0.364,0.186,0.752,0.185,1.139C38.582,43.7,38.793,48.113,38.992,52.089z"/>
		<path fill-rule="evenodd" clip-rule="evenodd" d="M32.079,52.105c0.128-4.201,0.274-8.814,0.401-13.429
			c0.021-0.746,0.044-1.492,0.881-1.758c0.496-0.158,0.911,0.67,0.95,1.847c0.24,7.083,0.595,14.165,0.667,21.25
			c0.036,3.627-0.434,7.26-0.688,10.89c-0.018,0.247-0.104,0.518-0.241,0.722c-0.175,0.261-0.424,0.561-0.783,0.442
			c-0.218-0.071-0.422-0.295-0.552-0.501c-0.291-0.46-0.208-1.004-0.257-1.519c-0.521-5.509-0.615-11.027-0.38-16.553
			C32.091,53.171,32.079,52.846,32.079,52.105z"/>
		<path fill-rule="evenodd" clip-rule="evenodd" d="M30.514,51.234c0.093,2.534,0.206,5.066,0.274,7.602
			c0.104,3.843-0.361,7.655-0.674,11.476c-0.016,0.194-0.036,0.389-0.05,0.583c-0.039,0.551-0.173,1.136-0.82,1.118
			c-0.667-0.019-0.679-0.679-0.757-1.182c-0.089-0.578-0.18-1.159-0.209-1.742c-0.27-5.387-0.725-10.765-0.224-16.17
			c0.216-2.325,0.09-4.68,0.16-7.02c0.068-2.274,0.187-4.546,0.284-6.82c0.006-0.13,0.01-0.26,0.02-0.389
			c0.039-0.5,0.221-0.929,0.793-0.901c0.567,0.027,0.711,0.481,0.734,0.972c0.116,2.533,0.255,5.065,0.333,7.599
			c0.05,1.624,0.01,3.251,0.01,4.877C30.43,51.235,30.472,51.234,30.514,51.234z"/>
		<path fill-rule="evenodd" clip-rule="evenodd" d="M26.437,51.401c-0.066,4.102,0.45,8.38,0.061,12.669
			c-0.194,2.135-0.294,4.277-0.477,6.413c-0.054,0.628-0.074,1.551-0.837,1.564c-0.803,0.016-0.773-0.903-0.821-1.531
			c-0.51-6.617-0.718-13.235-0.268-19.87c0.198-2.917,0.135-5.85,0.273-8.772c0.039-0.808-0.34-2.204,0.885-2.175
			c0.927,0.021,0.682,1.373,0.739,2.168C26.216,44.98,26.016,48.112,26.437,51.401z"/>
		<path fill-rule="evenodd" clip-rule="evenodd" d="M19.935,56c0.154-3.63,0.303-7.26,0.467-10.89
			c0.028-0.62-0.097-1.545,0.729-1.55c0.907-0.005,0.64,0.946,0.675,1.542c0.24,4.015,0.399,8.036,0.704,12.046
			c0.288,3.781-0.222,7.512-0.489,11.26c-0.069,0.971-0.169,1.938-0.255,2.907c-0.032,0.353-0.222,0.701-0.523,0.753
			c-0.474,0.08-0.622-0.384-0.75-0.739c-0.085-0.237-0.078-0.51-0.097-0.768c-0.242-3.234-0.551-6.467-0.69-9.705
			c-0.069-1.611,0.173-3.235,0.275-4.854C19.966,56.002,19.95,56.001,19.935,56z"/>
		<path fill-rule="evenodd" clip-rule="evenodd" d="M18.682,60.702c-0.448,1.926-0.275,3.895-0.591,5.814
			c-0.253,1.539-0.062,3.118-0.461,4.64c-0.095,0.363-0.115,0.837-0.669,0.735c-0.374-0.068-0.438-0.417-0.463-0.758
			c-0.26-3.49-0.721-6.979-0.73-10.471c-0.009-3.229,0.462-6.457,0.722-9.687c0.033-0.409,0.138-0.833,0.621-0.822
			c0.513,0.012,0.526,0.531,0.567,0.88c0.168,1.416,0.244,2.843,0.432,4.254C18.349,57.091,18.231,58.924,18.682,60.702z"/>
		<path fill-rule="evenodd" clip-rule="evenodd" d="M14.569,60.743c-0.326,3.434-0.655,6.92-0.989,10.406
			c-0.025,0.269-0.122,0.552-0.428,0.541c-0.262-0.009-0.469-0.222-0.498-0.51c-0.099-0.968-0.153-1.94-0.277-2.905
			c-0.656-5.109-0.638-10.216-0.003-15.326c0.12-0.964,0.139-1.94,0.226-2.91c0.03-0.335,0.179-0.652,0.585-0.612
			c0.307,0.031,0.376,0.331,0.401,0.589C13.915,53.569,14.238,57.124,14.569,60.743z"/>
		<path fill-rule="evenodd" clip-rule="evenodd" d="M10.564,60.767c-0.315,3.246-0.629,6.478-0.943,9.708
			c-0.006,0.064-0.017,0.129-0.03,0.192c-0.056,0.266-0.187,0.577-0.432,0.587c-0.249,0.009-0.412-0.282-0.44-0.562
			c-0.133-1.292-0.34-2.583-0.372-3.878c-0.054-2.212-0.61-4.39-0.46-6.606c0.153-2.268,0.381-4.53,0.574-6.794
			c0.088-1.036,0.159-2.073,0.27-3.106c0.017-0.158,0.179-0.38,0.323-0.429c0.33-0.112,0.466,0.197,0.495,0.425
			c0.174,1.417,0.327,2.837,0.462,4.259C10.206,56.632,10.38,58.703,10.564,60.767z"/>
		<path fill-rule="evenodd" clip-rule="evenodd" d="M6.627,60.941c-0.354,2.677-0.708,5.371-1.074,8.064
			c-0.032,0.232-0.065,0.594-0.329,0.596c-0.279,0.002-0.36-0.35-0.387-0.603c-0.475-4.497-1.25-8.984-0.37-13.523
			c0.184-0.949,0.201-1.93,0.314-2.893c0.042-0.366-0.038-0.953,0.438-0.936c0.362,0.013,0.385,0.607,0.438,0.978
			c0.171,1.217,0.326,2.438,0.466,3.659C6.301,57.826,6.458,59.37,6.627,60.941z"/>
	</g>
</g>
</svg>