<svg version="1.1" id="Layer_1" xmlns="http://www.w3.org/2000/svg"
    xmlns:xlink="http://www.w3.org/1999/xlink" x="0px" y="0px"
    width="100%" height="100%" viewBox="0 0 100 100" enable-background="new 0 0 100 100"
    xml:space="preserve">
<g>
	<path fill-rule="evenodd" clip-rule="evenodd" fill="none" d="M0.391,100.781c0-33.464,0-66.927,0-100.391c33.333,0,66.667,0,100,0
		c0,33.463,0,66.927,0,100.391C67.058,100.781,33.724,100.781,0.391,100.781z M92.066,50.487
		c0.27-22.63-18.433-41.495-41.415-41.774C27.787,8.436,8.81,27.291,8.715,50.382C8.622,73.16,27.067,91.858,50.242,92.015
		C73.051,92.167,91.729,74.057,92.066,50.487z"/>
	<path fill-rule="evenodd" clip-rule="evenodd" d="M92.066,50.487c-0.337,23.569-19.016,41.68-41.824,41.527
		C27.067,91.858,8.622,73.16,8.715,50.382C8.81,27.291,27.787,8.436,50.652,8.713C73.634,8.993,92.336,27.857,92.066,50.487z
		 M55.245,65.002c8.789,6.69,17.129,3.75,21.42-0.568c2.656-2.674,4.178-5.967,4.427-9.729c0.321-4.861-1.452-8.998-4.932-12.456
		c1.642-1.813,3.167-3.498,4.819-5.323c-0.526-0.115-0.648-0.165-0.771-0.166c-2.928-0.008-5.856,0.039-8.782-0.044
		c-0.863-0.024-1.821-0.236-2.56-0.665c-12.338-7.171-24.642-7.068-36.977,0.007c-0.735,0.422-1.683,0.636-2.539,0.658
		c-3.082,0.077-6.167,0.03-9.671,0.03c1.851,2.078,3.381,3.796,4.895,5.497c-6.801,7.371-5.286,16.126-0.895,21.233
		c5.296,6.162,12.923,6.773,21.906,1.605c1.564,1.654,3.151,3.332,4.835,5.113C52.104,68.385,53.642,66.729,55.245,65.002z"/>
	<path fill-rule="evenodd" clip-rule="evenodd" fill="#FFFFFF" d="M55.245,65.002c-1.604,1.727-3.142,3.383-4.823,5.193
		c-1.685-1.781-3.271-3.459-4.835-5.113c-8.983,5.168-16.61,4.557-21.906-1.605c-4.391-5.107-5.906-13.863,0.895-21.233
		c-1.514-1.701-3.044-3.418-4.895-5.497c3.504,0,6.589,0.047,9.671-0.03c0.856-0.022,1.803-0.236,2.539-0.658
		c12.335-7.075,24.639-7.178,36.977-0.007c0.738,0.429,1.696,0.64,2.56,0.665c2.926,0.083,5.854,0.037,8.782,0.044
		c0.123,0,0.245,0.05,0.771,0.166c-1.652,1.825-3.178,3.509-4.819,5.323c3.479,3.458,5.253,7.595,4.932,12.456
		c-0.249,3.763-1.771,7.056-4.427,9.729C72.374,68.752,64.034,71.692,55.245,65.002z M45.371,53.586
		c-0.009-5.708-4.56-10.282-10.26-10.314C29.337,43.24,24.617,47.9,24.622,53.629c0.004,5.648,4.842,10.43,10.521,10.397
		C40.708,63.995,45.38,59.227,45.371,53.586z M55.411,53.425c-0.084,5.733,4.548,10.534,10.215,10.586
		c5.695,0.053,10.441-4.582,10.535-10.287c0.092-5.573-4.563-10.365-10.15-10.448C60.207,43.188,55.496,47.7,55.411,53.425z
		 M50.385,51.084c1.532-6.275,5.522-10.333,11.263-12.942c-6.158-3.078-17.601-3.02-22.366,0.094
		C44.926,40.815,48.863,44.84,50.385,51.084z"/>
	<path fill-rule="evenodd" clip-rule="evenodd" d="M45.371,53.586c0.009,5.641-4.662,10.409-10.229,10.44
		c-5.678,0.032-10.517-4.749-10.521-10.397C24.617,47.9,29.337,43.24,35.111,43.272C40.811,43.304,45.361,47.878,45.371,53.586z
		 M35.046,59.031c3.05-0.038,5.47-2.479,5.42-5.468c-0.051-3.005-2.591-5.473-5.536-5.377c-3.054,0.099-5.383,2.553-5.304,5.588
		C29.704,56.72,32.123,59.067,35.046,59.031z"/>
	<path fill-rule="evenodd" clip-rule="evenodd" d="M55.411,53.425c0.085-5.725,4.796-10.236,10.6-10.149
		c5.587,0.083,10.242,4.875,10.15,10.448c-0.094,5.705-4.84,10.34-10.535,10.287C59.959,63.959,55.327,59.158,55.411,53.425z
		 M71.152,53.627c-0.011-3.031-2.457-5.482-5.441-5.455c-2.908,0.026-5.402,2.481-5.421,5.337c-0.02,3.024,2.413,5.509,5.404,5.521
		C68.771,59.042,71.163,56.674,71.152,53.627z"/>
	<path fill-rule="evenodd" clip-rule="evenodd" d="M50.385,51.084c-1.522-6.244-5.459-10.269-11.103-12.848
		c4.766-3.114,16.208-3.172,22.366-0.094C55.907,40.75,51.917,44.809,50.385,51.084z"/>
	<path fill-rule="evenodd" clip-rule="evenodd" fill="#FFFFFF" d="M35.046,59.031c-2.923,0.036-5.342-2.312-5.419-5.257
		c-0.08-3.035,2.25-5.49,5.304-5.588c2.945-0.095,5.485,2.372,5.536,5.377C40.516,56.552,38.096,58.993,35.046,59.031z"/>
	<path fill-rule="evenodd" clip-rule="evenodd" fill="#FFFFFF" d="M71.152,53.627c0.011,3.047-2.382,5.415-5.458,5.403
		c-2.991-0.013-5.424-2.497-5.404-5.521c0.019-2.855,2.513-5.311,5.421-5.337C68.695,48.145,71.142,50.596,71.152,53.627z"/>
</g>
</svg>