<svg id="visual" viewBox="0 0 2000 2000" width="2000" height="2000"
    xmlns="http://www.w3.org/2000/svg" xmlns:xlink="http://www.w3.org/1999/xlink" version="1.1">
    <rect x="0" y="0" width="2000" height="2000" fill="#fffff6"></rect>
    <path
        d="M0 1571L83.3 1493.3C166.7 1415.7 333.3 1260.3 500 1272.8C666.7 1285.3 833.3 1465.7 1000 1515C1166.7 1564.3 1333.3 1482.7 1500 1524.2C1666.7 1565.7 1833.3 1730.3 1916.7 1812.7L2000 1895L2000 2001L1916.7 2001C1833.3 2001 1666.7 2001 1500 2001C1333.3 2001 1166.7 2001 1000 2001C833.3 2001 666.7 2001 500 2001C333.3 2001 166.7 2001 83.3 2001L0 2001Z"
        fill="#fffee4"></path>
    <path
        d="M0 1390L83.3 1410C166.7 1430 333.3 1470 500 1571.2C666.7 1672.3 833.3 1834.7 1000 1812.5C1166.7 1790.3 1333.3 1583.7 1500 1475.5C1666.7 1367.3 1833.3 1357.7 1916.7 1352.8L2000 1348L2000 2001L1916.7 2001C1833.3 2001 1666.7 2001 1500 2001C1333.3 2001 1166.7 2001 1000 2001C833.3 2001 666.7 2001 500 2001C333.3 2001 166.7 2001 83.3 2001L0 2001Z"
        fill="#fdfbc8"></path>
</svg>